<?xml version="1.0" encoding="utf-8"?>
<!-- Generator: Adobe Illustrator 23.1.0, SVG Export Plug-In . SVG Version: 6.00 Build 0)  -->
<svg version="1.1" id="圖層_1" xmlns="http://www.w3.org/2000/svg" xmlns:xlink="http://www.w3.org/1999/xlink" x="0px" y="0px"
	 viewBox="0 0 16 16" style="enable-background:new 0 0 16 16;" xml:space="preserve">
<style type="text/css">
	.st0{fill:#FFFFFF;}
	.st1{fill:#1877F2;}
</style>
<g id="Group_597" transform="translate(-865.78 -434.355)">
	<path id="Rectangle_2808" class="st0" d="M873.8,436.2L873.8,436.2c3.4,0,6.2,2.8,6.2,6.2l0,0c0,3.4-2.8,6.2-6.2,6.2l0,0
		c-3.4,0-6.2-2.8-6.2-6.2l0,0C867.6,439,870.4,436.2,873.8,436.2z"/>
	<path id="Path_41" class="st1" d="M872.4,448.6h2.1v-4.8h1.5l0.2-1.8h-1.6v-1c0-0.4,0.1-0.6,0.5-0.6h1.1v-1.8h-1.5
		c-1.6,0-2.3,0.7-2.3,2v1.4h-1.1v1.8h1.1V448.6z"/>
</g>
</svg>
