<?xml version="1.0" encoding="utf-8"?>
<!-- Generator: Adobe Illustrator 23.1.0, SVG Export Plug-In . SVG Version: 6.00 Build 0)  -->
<svg version="1.1" id="圖層_1" xmlns="http://www.w3.org/2000/svg" xmlns:xlink="http://www.w3.org/1999/xlink" x="0px" y="0px"
	 viewBox="0 0 16 16" style="enable-background:new 0 0 16 16;" xml:space="preserve">
<style type="text/css">
	.st0{fill:#FFFFFF;}
	.st1{fill:#1877F2;}
</style>
<g id="Group_597" transform="translate(-865.78 -434.355)">
	<path id="Rectangle_2808" class="st0" d="M873.8,434.4L873.8,434.4c4.4,0,8,3.6,8,8l0,0c0,4.4-3.6,8-8,8l0,0c-4.4,0-8-3.6-8-8l0,0
		C865.8,438,869.4,434.4,873.8,434.4z"/>
	<path id="Path_41" class="st1" d="M872.1,450.3h2.7v-6.2h1.9l0.2-2.3h-2.1v-1.3c0-0.5,0.1-0.8,0.6-0.8h1.4v-2.4H875
		c-2,0-2.9,0.9-2.9,2.6v1.8h-1.4v2.3h1.4V450.3z"/>
</g>
</svg>
