<?xml version="1.0" encoding="utf-8"?>
<!-- Generator: Adobe Illustrator 23.1.0, SVG Export Plug-In . SVG Version: 6.00 Build 0)  -->
<svg version="1.1" id="圖層_1" xmlns="http://www.w3.org/2000/svg" xmlns:xlink="http://www.w3.org/1999/xlink" x="0px" y="0px"
	 viewBox="0 0 107 37" style="enable-background:new 0 0 107 37;" xml:space="preserve">
<style type="text/css">
	.st0{fill:#FBB33B;}
	.st1{fill:#FFFFFF;}
	.st2{fill:#FB9A3B;}
</style>
<g>
	<g>
		<g>
			<g>
				<circle class="st0" cx="23" cy="18.5" r="18"/>
			</g>
			<g>
				<circle class="st1" cx="13.3" cy="18.5" r="2.7"/>
				<circle class="st1" cx="23" cy="18.5" r="2.7"/>
				<circle class="st1" cx="32.7" cy="18.5" r="2.7"/>
			</g>
		</g>
		<g>
			<path class="st2" d="M62.5,22.5c-0.3,1.6-1,3.1-2.4,4.4c3.6,1.4,8.4,1.7,14.4,1.8c-0.5,0.6-1,1.7-1.1,2.6
				C67.1,31.1,62,30.7,58,28.7c-1.8,1.2-4.4,2.1-7.9,2.9c-0.3-0.6-1-1.7-1.6-2.3c3.1-0.5,5.3-1.2,7-2.1c-1.3-1-2.4-2.2-3.3-3.7
				l2.3-0.9c0.9,1.3,1.9,2.3,3.2,3.1c1.1-1,1.7-2,2-3.2h-8.2V11.4h8.6v-2h-11V6.9h24.5v2.4H62.9v2h8.9v11.2H62.5z M54.1,15.9h6.1
				v-2.4h-6.1V15.9z M60.1,20.4c0.1-0.5,0.1-0.9,0.1-1.4v-1h-6.1v2.4H60.1z M69.2,18h-6.3v1c0,0.5,0,0.9-0.1,1.4h6.3L69.2,18
				L69.2,18z M62.9,13.5v2.4h6.3v-2.4H62.9z"/>
			<path class="st2" d="M98,8.7c-3.6,6.6-11.8,10.4-19.5,12.1c-0.2-0.7-0.8-1.7-1.2-2.3c3.5-0.6,7-1.7,10.1-3.3
				c-1.1-1-2.9-2.1-4.4-2.9c-1.1,0.6-2.4,1.2-3.7,1.7c-0.4-0.6-1.2-1.5-1.8-2c5-1.7,8.6-4.2,10.5-6.6l3,0.7c-0.5,0.6-1,1.1-1.6,1.7
				h6.5l0.4-0.1L98,8.7z M102,18.6c-3.5,8.2-12,11.7-21.3,13c-0.2-0.7-0.7-1.8-1.1-2.4c4.3-0.5,8.4-1.4,11.8-3.1
				c-1.2-1.1-3.2-2.5-4.9-3.4c-1.4,0.7-2.8,1.3-4.4,1.8c-0.3-0.6-1-1.6-1.6-2c5.9-1.8,10-4.6,12.2-7.3l2.9,0.7
				c-0.6,0.7-1.2,1.3-1.9,2h6.2l0.5-0.1L102,18.6z M86.7,10c-0.5,0.3-1,0.7-1.5,1c1.7,0.9,3.5,2,4.5,2.9c1.7-1.1,3.3-2.4,4.4-3.9
				H86.7z M90.8,20c-0.7,0.5-1.3,0.9-2,1.3c1.7,1,3.7,2.3,4.9,3.3c1.9-1.2,3.5-2.8,4.6-4.6C98.3,20,90.8,20,90.8,20z"/>
		</g>
	</g>
</g>
</svg>
