<?xml version="1.0" encoding="utf-8"?>
<!-- Generator: Adobe Illustrator 23.1.0, SVG Export Plug-In . SVG Version: 6.00 Build 0)  -->
<svg version="1.1" id="圖層_1" xmlns="http://www.w3.org/2000/svg" xmlns:xlink="http://www.w3.org/1999/xlink" x="0px" y="0px"
	 viewBox="0 0 731 100" style="enable-background:new 0 0 731 100;" xml:space="preserve">
<style type="text/css">
	.st0{fill:#002B62;}
	.st1{fill:#EC6C00;}
	.st2{fill:#1B2684;}
</style>
<g>
	<g>
		<g>
			<g>
				<g>
					<path class="st0" d="M276.2,58.7c-0.5-1.5-0.7-2.9-0.7-6.7c0-3.8,0.1-5.2,0.7-6.7c1.2-3.9,4.4-5.8,8.5-5.8c4.2,0,7.4,2,8.6,5.8
						c0.5,1.5,0.6,2.8,0.6,6.7c0,3.8-0.1,5.2-0.6,6.7c-1.2,3.8-4.4,5.8-8.6,5.8C280.6,64.6,277.5,62.6,276.2,58.7z M289.3,57.6
						c0.3-0.9,0.4-2.1,0.4-5.6c0-3.4-0.2-4.7-0.4-5.6c-0.7-2-2.1-3.2-4.6-3.2c-2.4,0-3.8,1.2-4.5,3.2c-0.3,0.9-0.4,2.1-0.4,5.6
						c0,3.4,0.1,4.7,0.4,5.6c0.7,2,2.1,3.2,4.5,3.2C287.2,60.8,288.6,59.6,289.3,57.6z"/>
					<path class="st0" d="M298.2,64.2c-0.2,0-0.4-0.1-0.4-0.3V47.4c0-0.2,0.1-0.4,0.4-0.4h3.3c0.2,0,0.4,0.1,0.4,0.4v1.4h0
						c0.8-1.3,2.3-2.2,4.4-2.2c1.4,0,2.7,0.5,3.6,1.4c0.2,0.2,0.2,0.3,0.1,0.5l-1.9,2.4c-0.1,0.2-0.3,0.2-0.5,0.1
						c-0.8-0.5-1.6-0.8-2.5-0.8c-2.2,0-3.2,1.6-3.2,4.3v9.3c0,0.2-0.2,0.3-0.4,0.3H298.2z"/>
					<path class="st0" d="M311,59.8c-0.4-1.1-0.5-2.4-0.5-4.3c0-1.8,0.2-3.2,0.5-4.2c1-3.1,3.6-4.7,7.1-4.7c2.6,0,4.6,1,6,2.7
						c0.1,0.1,0.1,0.3,0,0.5l-2.2,2c-0.2,0.1-0.4,0.1-0.5-0.1c-0.9-1-1.8-1.5-3.2-1.5c-1.5,0-2.7,0.8-3.2,2.2
						c-0.3,0.9-0.4,1.9-0.4,3.2c0,1.3,0.1,2.4,0.4,3.2c0.5,1.5,1.7,2.2,3.2,2.2c1.4,0,2.3-0.5,3.2-1.5c0.1-0.2,0.3-0.2,0.5-0.1
						l2.2,2c0.2,0.1,0.2,0.3,0,0.5c-1.4,1.6-3.4,2.6-6,2.6C314.6,64.6,312,62.9,311,59.8z"/>
					<path class="st0" d="M338.3,64.2c-0.2,0-0.4-0.1-0.4-0.3v-9.9c0-2.2-1.1-3.8-3.2-3.8c-2.1,0-3.3,1.5-3.3,3.8v9.9
						c0,0.2-0.2,0.3-0.4,0.3h-3.3c-0.2,0-0.4-0.1-0.4-0.3V40.3c0-0.2,0.1-0.4,0.4-0.4h3.3c0.2,0,0.4,0.1,0.4,0.4v8.3h0
						c0.8-1.1,2.2-2,4.5-2c3.7,0,6,2.7,6,6.4v10.9c0,0.2-0.2,0.3-0.4,0.3H338.3z"/>
					<path class="st0" d="M345.7,59.8c-0.4-1.1-0.6-2.4-0.6-4.2c0-1.8,0.2-3.1,0.6-4.2c1-3,3.6-4.7,7-4.7c3.5,0,6.1,1.8,7.1,4.7
						c0.4,1.2,0.6,2.4,0.6,5.2c0,0.2-0.1,0.3-0.4,0.3h-10.6c-0.2,0-0.2,0.1-0.2,0.2c0,0.5,0.1,0.9,0.3,1.3c0.6,1.7,1.9,2.6,3.8,2.6
						c1.9,0,3.2-0.7,4-1.6c0.2-0.2,0.3-0.2,0.5-0.1l2.1,1.9c0.2,0.1,0.2,0.3,0,0.5c-1.5,1.7-3.9,2.9-7.1,2.9
						C349.3,64.6,346.7,62.8,345.7,59.8z M356.1,52.2c-0.5-1.4-1.7-2.2-3.3-2.2c-1.6,0-2.9,0.8-3.4,2.2c-0.2,0.4-0.2,0.9-0.2,1.5
						c0,0.1,0.1,0.2,0.2,0.2h6.7c0.1,0,0.2-0.1,0.2-0.2C356.3,53.1,356.2,52.6,356.1,52.2z"/>
					<path class="st0" d="M362.7,61.9c-0.1-0.1-0.1-0.3,0-0.5l2.1-2.1c0.1-0.1,0.4-0.1,0.5,0c1.2,1.1,3.2,2,5,2c2.1,0,3.2-0.9,3.2-2
						c0-1-0.6-1.7-2.9-1.9l-1.9-0.2c-3.5-0.4-5.3-2.1-5.3-5.1c0-3.3,2.4-5.4,6.7-5.4c2.7,0,4.9,0.9,6.4,2.1c0.2,0.1,0.2,0.4,0.1,0.5
						l-1.7,2.1c-0.2,0.2-0.3,0.2-0.5,0.1c-1.1-0.7-2.8-1.4-4.5-1.4c-1.7,0-2.6,0.8-2.6,1.8c0,1,0.6,1.6,2.8,1.8l1.9,0.2
						c3.6,0.3,5.3,2.2,5.3,5c0,3.4-2.5,5.8-7.2,5.8C366.5,64.6,364.1,63.2,362.7,61.9z"/>
					<path class="st0" d="M385.6,64.4c-3.4,0-4.8-1.7-4.8-5v-9.1c0-0.1-0.1-0.2-0.2-0.2h-1.1c-0.2,0-0.3-0.1-0.3-0.3v-2.4
						c0-0.2,0.1-0.4,0.3-0.4h1.1c0.1,0,0.2-0.1,0.2-0.2v-4.7c0-0.2,0.2-0.4,0.4-0.4h3.3c0.2,0,0.4,0.1,0.4,0.4v4.7
						c0,0.1,0.1,0.2,0.2,0.2h2.3c0.2,0,0.3,0.1,0.3,0.4v2.4c0,0.2-0.1,0.3-0.3,0.3h-2.3c-0.1,0-0.2,0.1-0.2,0.2v8.9
						c0,1.2,0.5,1.6,1.6,1.6h0.9c0.2,0,0.3,0.2,0.3,0.4V64c0,0.2-0.1,0.4-0.3,0.4H385.6z"/>
					<path class="st0" d="M391.7,64.2c-0.2,0-0.3-0.1-0.3-0.3V47.4c0-0.2,0.1-0.4,0.3-0.4h3.3c0.2,0,0.3,0.1,0.3,0.4v1.4h0.1
						c0.8-1.3,2.3-2.2,4.4-2.2c1.4,0,2.7,0.5,3.6,1.4c0.2,0.2,0.2,0.3,0.1,0.5l-1.9,2.4c-0.2,0.2-0.3,0.2-0.5,0.1
						c-0.8-0.5-1.6-0.8-2.5-0.8c-2.2,0-3.2,1.6-3.2,4.3v9.3c0,0.2-0.1,0.3-0.3,0.3H391.7z"/>
					<path class="st0" d="M414.9,64.2c-0.2,0-0.4-0.1-0.4-0.3v-1.3h0c-0.8,1.2-2.4,2-4.9,2c-3.1,0-5.8-1.6-5.8-5.2
						c0-3.8,2.6-5.5,6.9-5.5h3.5c0.1,0,0.2-0.1,0.2-0.2v-0.8c0-2-0.9-2.9-3.8-2.9c-1.9,0-3.1,0.5-3.9,1.2c-0.2,0.1-0.4,0.1-0.5-0.1
						l-1.3-2.3c-0.1-0.2-0.1-0.4,0.1-0.5c1.4-1,3.3-1.7,6.1-1.7c5.2,0,7.2,1.8,7.2,6v11.2c0,0.2-0.1,0.3-0.4,0.3H414.9z M414.5,58.4
						v-1.3c0-0.2-0.1-0.2-0.2-0.2h-2.8c-2.6,0-3.7,0.7-3.7,2.3c0,1.4,1,2.1,2.9,2.1C413.2,61.3,414.5,60.4,414.5,58.4z"/>
					<path class="st0" d="M427.6,64.4c-3.4,0-4.8-1.7-4.8-5v-9.1c0-0.1-0.1-0.2-0.2-0.2h-1.1c-0.2,0-0.4-0.1-0.4-0.3v-2.4
						c0-0.2,0.2-0.4,0.4-0.4h1.1c0.1,0,0.2-0.1,0.2-0.2v-4.7c0-0.2,0.2-0.4,0.3-0.4h3.3c0.2,0,0.4,0.1,0.4,0.4v4.7
						c0,0.1,0.1,0.2,0.2,0.2h2.3c0.2,0,0.3,0.1,0.3,0.4v2.4c0,0.2-0.1,0.3-0.3,0.3h-2.3c-0.2,0-0.2,0.1-0.2,0.2v8.9
						c0,1.2,0.5,1.6,1.6,1.6h0.9c0.2,0,0.3,0.2,0.3,0.4V64c0,0.2-0.1,0.4-0.3,0.4H427.6z"/>
					<path class="st0" d="M433.7,43.8c-0.2,0-0.4-0.2-0.4-0.4v-3.1c0-0.2,0.1-0.4,0.4-0.4h3.3c0.2,0,0.4,0.1,0.4,0.4v3.1
						c0,0.2-0.1,0.4-0.4,0.4H433.7z M433.7,64.2c-0.2,0-0.4-0.1-0.4-0.3V47.4c0-0.2,0.1-0.4,0.4-0.4h3.3c0.2,0,0.4,0.1,0.4,0.4v16.5
						c0,0.2-0.1,0.3-0.4,0.3H433.7z"/>
					<path class="st0" d="M452.7,64.2c-0.2,0-0.4-0.1-0.4-0.3v-9.9c0-2.2-1.1-3.8-3.2-3.8c-2.1,0-3.3,1.5-3.3,3.8v9.9
						c0,0.2-0.1,0.3-0.3,0.3h-3.3c-0.2,0-0.4-0.1-0.4-0.3V47.4c0-0.2,0.2-0.4,0.4-0.4h3.3c0.2,0,0.3,0.1,0.3,0.4v1.2h0
						c0.8-1.1,2.3-2,4.5-2c3.6,0,5.9,2.7,5.9,6.4v10.9c0,0.2-0.1,0.3-0.3,0.3H452.7z"/>
					<path class="st0" d="M460.1,68.4c-0.1-0.2-0.1-0.3,0.1-0.5l2.1-2.1c0.2-0.2,0.4-0.2,0.5,0c1.1,1,2.3,1.6,3.7,1.6
						c2.7,0,3.9-1.4,3.9-4.1v-1.6h0c-0.8,1.2-2.3,2-4.5,2c-2.9,0-5-1.5-5.8-4.2c-0.4-1.3-0.6-2.5-0.6-4.4c0-1.9,0.1-3,0.6-4.3
						c0.9-2.8,2.9-4.2,5.8-4.2c2.2,0,3.7,0.8,4.5,2h0v-1.3c0-0.2,0.1-0.4,0.4-0.4h3.3c0.2,0,0.4,0.1,0.4,0.4v15.7
						c0,4.9-2.8,7.9-8,7.9C463.9,71,461.4,70,460.1,68.4z M470,58c0.3-0.8,0.4-1.6,0.4-2.8c0-1.1-0.1-2-0.4-2.8
						c-0.5-1.4-1.4-2.2-3.1-2.2c-1.6,0-2.5,0.8-3,2.2c-0.3,0.8-0.4,1.7-0.4,2.8c0,1.2,0.1,2,0.4,2.8c0.5,1.4,1.4,2.2,3,2.2
						C468.5,60.2,469.5,59.4,470,58z"/>
				</g>
				<g>
					<path class="st1" d="M493.2,46.6c-2.4,0-4.3,0.6-5.6,1.7c-0.3,0.3-0.4,0.6-0.2,1l0.6,0.9c0.2,0.3,0.7,0.4,1.1,0.1
						c1-0.8,2.2-1.2,3.9-1.2c3.4,0,3.9,1.1,3.9,3.4V54h-4c-5.6,0-6.7,2.8-6.7,5.3c0,3.3,2.2,5.2,6,5.2c2.1,0,3.8-0.6,4.8-1.6v0.5
						c0,0.4,0.3,0.7,0.7,0.7h1.1c0.4,0,0.7-0.3,0.7-0.7v-11C499.7,48.3,497.8,46.6,493.2,46.6z M497,56.4v2.3c0,2-1.7,3.3-4.4,3.3
						c-1.7,0-3.7-0.5-3.7-2.8c0-1.4,0.5-2.9,4.3-2.9H497z"/>
					<path class="st1" d="M520.4,46.6c-2.1,0-3.7,0.6-4.7,1.8v-7.8c0-0.4-0.3-0.7-0.7-0.7h-1.2c-0.4,0-0.7,0.3-0.7,0.7v22.8
						c0,0.4,0.3,0.7,0.7,0.7h1.2c0.4,0,0.7-0.3,0.7-0.7v-0.7c1.1,1.2,2.6,1.8,4.7,1.8c3.1,0,5.1-1.4,6-4.2c0.4-1.4,0.6-2.8,0.6-4.7
						c0-1.9-0.2-3.4-0.6-4.8C525.5,48.1,523.4,46.6,520.4,46.6z M520,49.2c2,0,3.3,0.9,3.9,2.6c0.3,0.9,0.4,2.1,0.4,3.8
						c0,1.6-0.1,2.9-0.4,3.7c-0.6,1.7-1.9,2.6-3.9,2.6c-2,0-3.3-0.9-3.9-2.6c-0.3-0.9-0.4-2-0.4-3.7c0-1.8,0.1-2.9,0.4-3.8
						C516.6,50.1,518,49.2,520,49.2z"/>
					<path class="st1" d="M541.4,47.9c-0.9-0.8-2.2-1.2-3.6-1.2c-1.8,0-3.2,0.6-4.1,1.8v-0.7c0-0.4-0.3-0.7-0.8-0.7h-1.2
						c-0.4,0-0.8,0.3-0.8,0.7v15.7c0,0.4,0.3,0.7,0.8,0.7h1.2c0.4,0,0.8-0.3,0.8-0.7v-9.1c0-1.9,0.5-5.1,3.6-5.1
						c0.8,0,1.6,0.2,2.5,0.8c0.2,0.1,0.3,0.1,0.5,0.1c0.1,0,0.4-0.1,0.6-0.3l0.7-0.9c0.2-0.2,0.2-0.4,0.2-0.6
						C541.7,48.1,541.6,48,541.4,47.9z"/>
					<path class="st1" d="M546.5,40h-1.6c-0.4,0-0.8,0.3-0.8,0.7v1.9c0,0.4,0.3,0.7,0.8,0.7h1.6c0.4,0,0.8-0.3,0.8-0.7v-1.9
						C547.2,40.3,546.9,40,546.5,40z"/>
					<path class="st1" d="M546.3,47h-1.2c-0.4,0-0.8,0.3-0.8,0.7v15.7c0,0.4,0.3,0.7,0.8,0.7h1.2c0.4,0,0.8-0.3,0.8-0.7V47.7
						C547,47.3,546.7,47,546.3,47z"/>
					<path class="st1" d="M564.2,47H563c-0.4,0-0.8,0.3-0.8,0.7v0.7c-1-1.2-2.5-1.8-4.6-1.8c-2.9,0-5,1.5-6,4.2
						c-0.4,1.2-0.6,2.6-0.6,4.6c0,2,0.2,3.4,0.6,4.6c0.9,2.7,3,4.2,6,4.2c2,0,3.6-0.6,4.6-1.8v1.1c0,3.1-1.4,4.6-4.4,4.6
						c-1.6,0-2.9-0.5-3.8-1.6c-0.3-0.3-0.7-0.4-1.1-0.1l-0.8,0.7c-0.3,0.3-0.4,0.6-0.2,1c1,1.5,3.1,2.5,5.6,2.5
						c4.6,0,7.4-2.6,7.4-7.2V47.7C564.9,47.3,564.6,47,564.2,47z M558,61.7c-1.9,0-3.1-0.9-3.7-2.6c-0.3-0.8-0.5-2-0.5-3.6
						c0-1.6,0.2-2.8,0.5-3.7c0.6-1.7,1.8-2.6,3.7-2.6c1.9,0,3.2,0.9,3.8,2.6c0.3,0.9,0.4,1.9,0.4,3.6c0,1.7-0.1,2.8-0.4,3.6
						C561.2,60.8,560,61.7,558,61.7z"/>
					<path class="st1" d="M577.5,46.6c-1.9,0-3.5,0.7-4.6,1.8v-7.8c0-0.4-0.3-0.7-0.8-0.7h-1.2c-0.4,0-0.8,0.3-0.8,0.7v22.8
						c0,0.4,0.3,0.7,0.8,0.7h1.2c0.4,0,0.8-0.3,0.8-0.7v-10c0-2.5,1.6-4.2,4.1-4.2c2.7,0,4,1.5,4,4.5v9.7c0,0.4,0.3,0.7,0.8,0.7h1.2
						c0.4,0,0.7-0.3,0.7-0.7V53.3C583.7,49.1,581.4,46.6,577.5,46.6z"/>
					<path class="st1" d="M594.7,47h-2.9v-4.5c0-0.4-0.3-0.7-0.8-0.7h-1.2c-0.4,0-0.8,0.3-0.8,0.7V47h-1.6c-0.4,0-0.8,0.3-0.8,0.7v1
						c0,0.4,0.3,0.7,0.8,0.7h1.6v10c0,3.4,1.4,4.8,4.8,4.8h0.9c0.4,0,0.8-0.3,0.8-0.7v-1.1c0-0.4-0.3-0.8-0.8-0.8h-0.7
						c-1.7,0-2.3-0.3-2.3-2.3v-9.9h2.9c0.4,0,0.8-0.3,0.8-0.7v-1C595.5,47.3,595.2,47,594.7,47z"/>
					<path class="st1" d="M605.4,46.6c-3.2,0-5.6,1.7-6.6,4.5c-0.4,1.1-0.5,2.4-0.5,4.4c0,1.9,0.2,3.2,0.5,4.4c1,3,3.4,4.6,6.8,4.6
						c2.7,0,5-1.1,6.4-2.9c0.3-0.4,0.2-0.8-0.1-1l-0.8-0.7c-0.3-0.3-0.8-0.2-1.1,0.1c-1.1,1.3-2.5,2-4.3,2c-2.2,0-3.7-1-4.4-2.9
						c-0.2-0.7-0.3-1.4-0.3-2.6h10.7c0.5,0,0.8-0.3,0.8-0.7c0-2.3-0.1-3.4-0.5-4.5C611.1,48.3,608.7,46.6,605.4,46.6z M605.4,49.2
						c2.1,0,3.5,1,4.1,2.8c0.2,0.6,0.3,1.2,0.3,2.1H601c0-0.8,0.1-1.5,0.3-2.1C601.9,50.2,603.4,49.2,605.4,49.2z"/>
					<path class="st1" d="M627.1,47.9c-0.9-0.8-2.2-1.2-3.6-1.2c-1.8,0-3.2,0.6-4.1,1.8v-0.7c0-0.4-0.3-0.7-0.8-0.7h-1.2
						c-0.4,0-0.7,0.3-0.7,0.7v15.7c0,0.4,0.3,0.7,0.7,0.7h1.2c0.4,0,0.8-0.3,0.8-0.7v-9.1c0-1.9,0.5-5.1,3.6-5.1
						c0.9,0,1.6,0.2,2.5,0.8c0.2,0.1,0.3,0.1,0.4,0.1c0.2,0,0.4-0.1,0.6-0.3l0.7-0.9c0.1-0.2,0.2-0.4,0.2-0.6
						C627.4,48.1,627.2,48,627.1,47.9z"/>
					<path class="st1" d="M659.8,47h-1.3c-0.5,0-0.7,0.3-0.8,0.6l-3.8,12l-4-12c-0.1-0.4-0.4-0.6-0.8-0.6h-1c-0.3,0-0.6,0.1-0.8,0.6
						l-4,12l-3.9-12c-0.1-0.3-0.3-0.6-0.8-0.6h-1.3c-0.3,0-0.5,0.1-0.5,0.3c-0.1,0.1-0.2,0.3-0.1,0.6l5.2,15.7
						c0.1,0.4,0.4,0.6,0.8,0.6h1.1c0.4,0,0.7-0.2,0.8-0.6l4.1-12l4,12c0.1,0.4,0.4,0.6,0.8,0.6h1.1c0.4,0,0.7-0.2,0.8-0.6l5.2-15.7
						c0.1-0.3,0-0.5-0.1-0.6C660.2,47.1,660.1,47,659.8,47z"/>
					<path class="st1" d="M669.7,46.6c-3.2,0-5.7,1.7-6.6,4.5c-0.4,1.3-0.6,2.6-0.6,4.4c0,1.8,0.2,3.1,0.6,4.4
						c1,2.9,3.4,4.6,6.6,4.6c3.3,0,5.7-1.7,6.7-4.6c0.4-1.3,0.6-2.6,0.6-4.4c0-1.8-0.2-3.1-0.6-4.4C675.4,48.3,673,46.6,669.7,46.6z
						 M669.7,61.9c-2,0-3.4-1-4-2.8c-0.3-0.9-0.4-2-0.4-3.6c0-1.6,0.2-2.6,0.4-3.6c0.6-1.8,2.1-2.8,4-2.8c2,0,3.5,1,4.1,2.8
						c0.3,0.9,0.4,1.9,0.4,3.6c0,1.6-0.1,2.7-0.4,3.6C673.1,61,671.7,61.9,669.7,61.9z"/>
					<path class="st1" d="M691.3,47.9c-0.9-0.8-2.2-1.2-3.6-1.2c-1.8,0-3.2,0.6-4.1,1.8v-0.7c0-0.4-0.3-0.7-0.7-0.7h-1.2
						c-0.4,0-0.8,0.3-0.8,0.7v15.7c0,0.4,0.3,0.7,0.8,0.7h1.2c0.4,0,0.7-0.3,0.7-0.7v-9.1c0-1.9,0.5-5.1,3.7-5.1
						c0.8,0,1.6,0.2,2.5,0.8c0.2,0.1,0.3,0.1,0.4,0.1c0.2,0,0.4-0.1,0.6-0.3l0.7-0.9c0.2-0.2,0.2-0.4,0.2-0.6
						C691.6,48.1,691.5,48,691.3,47.9z"/>
					<path class="st1" d="M698.9,61.7h-0.6c-1,0-1.4-0.2-1.4-1.7V40.7c0-0.4-0.3-0.7-0.8-0.7H695c-0.4,0-0.7,0.3-0.7,0.7V60
						c0,3,1.2,4.2,3.9,4.2h0.8c0.4,0,0.7-0.3,0.7-0.7v-1.1C699.7,62,699.3,61.7,698.9,61.7z"/>
					<path class="st1" d="M715.3,40h-1.2c-0.4,0-0.8,0.3-0.8,0.7v7.8c-1.1-1.2-2.7-1.8-4.7-1.8c-3.1,0-5.2,1.4-6.1,4.2
						c-0.4,1.3-0.6,2.7-0.6,4.8c0,2,0.2,3.5,0.6,4.7c0.9,2.8,2.9,4.2,6.1,4.2c2.1,0,3.7-0.6,4.7-1.8v0.7c0,0.4,0.3,0.7,0.8,0.7h1.2
						c0.4,0,0.7-0.3,0.7-0.7V40.7C716,40.3,715.7,40,715.3,40z M709,61.9c-2,0-3.3-0.9-3.9-2.6c-0.3-0.9-0.5-2.1-0.5-3.7
						c0-1.7,0.2-2.9,0.5-3.8c0.6-1.7,1.9-2.6,3.9-2.6c2,0,3.3,0.9,3.9,2.6c0.3,0.9,0.5,2,0.5,3.8c0,1.7-0.1,2.9-0.5,3.7
						C712.3,61.1,711,61.9,709,61.9z"/>
				</g>
			</g>
			<path class="st1" d="M270.9,67.7c0.9-0.4,1.4-1.5,1-2.4L255,28.9v0c0,0,0,0,0,0c-0.2-0.4-0.6-0.5-1-0.4c-0.4,0.2-0.5,0.6-0.4,1
				l0,0v0l15,37.3C268.9,67.7,270,68.1,270.9,67.7L270.9,67.7z"/>
		</g>
	</g>
	<g>
		<path class="st2" d="M16.7,25.9h16.8c3.8,0,8.4,3.6,10.4,5.6l29.4,32.7V25.9h10V78H65.8c-3.1-0.1-6.2-0.8-9.8-4.3L26.6,41.1v37
			h-10V25.9z"/>
		<path class="st2" d="M225.3,78.4c-12,1.7-24.1,1.8-36.3,0.8c-7.1-0.6-14.1-2.1-20.5-5.4c-8-4.2-10.6-13.6-10.5-22.1
			c0.1-7.9,2.4-16.2,9.4-20.8c4.6-3,9.5-4,14.7-5c14.2-2.5,28.5-1.9,42.4-0.4v7.4c-16.4-3.2-33.7-2.4-39.6,5.1
			c-3.7,4.7-4.2,9.3-4.2,13.3c0,7.1,2.4,17.8,16.7,19.9c9.4,1.4,18.6,0.3,27.7-1.3V78.4z"/>
		<path class="st2" d="M122.7,70.3c1.4,0.1,24,0.1,31.8,0v7.8c-15.6,0.6-30.6,0.9-46.4,0.2C94.7,77.7,92.4,71,92.1,64.5V25.9h61.6
			v7.4h-39.8v13.3h36.3v7.2h-36.3c0,3.9,0.1,8.4,0.1,9.2C114.2,68.1,116.6,69.9,122.7,70.3z"/>
	</g>
</g>
</svg>
