<?xml version="1.0" encoding="utf-8"?>
<!-- Generator: Adobe Illustrator 23.1.0, SVG Export Plug-In . SVG Version: 6.00 Build 0)  -->
<svg version="1.1" id="圖層_1" xmlns="http://www.w3.org/2000/svg" xmlns:xlink="http://www.w3.org/1999/xlink" x="0px" y="0px"
	 viewBox="0 0 300 100" style="enable-background:new 0 0 300 100;" xml:space="preserve">
<style type="text/css">
	.st0{fill:#1B2684;}
</style>
<g>
	<path class="st0" d="M8.5,14.8h22.8c5.2,0,11.4,4.9,14.1,7.6l40,44.4V14.8H99v70.9H75.2c-4.2-0.1-8.4-1-13.3-5.8L22,35.4v50.3H8.5
		V14.8z"/>
	<path class="st0" d="M292,86.1c-16.3,2.3-32.7,2.5-49.3,1.1c-9.7-0.8-19.1-2.8-27.8-7.4c-10.9-5.7-14.4-18.4-14.3-30
		c0.1-10.7,3.3-22.1,12.8-28.3c6.2-4.1,12.9-5.5,20-6.7c19.4-3.4,38.7-2.6,57.6-0.6v10.1c-22.3-4.3-45.8-3.2-53.8,7
		c-5,6.4-5.7,12.7-5.7,18c0,9.6,3.3,24.2,22.8,27c12.8,1.9,25.3,0.4,37.6-1.8V86.1z"/>
	<path class="st0" d="M152.6,75.1c1.9,0.1,32.6,0.2,43.2,0v10.6c-21.2,0.8-41.6,1.2-63,0.3c-18.2-0.8-21.3-9.9-21.7-18.7V14.8h83.7
		v10.1h-54.1v18h49.3v9.8h-49.3c0,5.3,0.1,11.4,0.2,12.4C141.1,72.1,144.3,74.6,152.6,75.1z"/>
</g>
</svg>
