<?xml version="1.0" encoding="utf-8"?>
<!-- Generator: Adobe Illustrator 23.0.6, SVG Export Plug-In . SVG Version: 6.00 Build 0)  -->
<svg version="1.1" id="Layer_1" xmlns="http://www.w3.org/2000/svg" xmlns:xlink="http://www.w3.org/1999/xlink" x="0px" y="0px"
	 viewBox="0 0 16 16" style="enable-background:new 0 0 16 16;" xml:space="preserve">
<style type="text/css">
	.st0{fill:#FFFFFF;}
</style>
<path class="st0" d="M8,2.6c-3.4,0-6.1,2.2-6.1,5C1.9,10,4.1,12,7,12.4c0.7,0.2,0.6,0.4,0.5,1.4c0,0.2-0.1,0.6,0.5,0.3
	c0.7-0.3,3.5-2.1,4.8-3.5c0.9-1,1.3-2,1.3-3C14.1,4.8,11.4,2.6,8,2.6z M5.7,9.1H4c0,0-0.1,0-0.1,0c0,0,0-0.1,0-0.1V6.3c0,0,0,0,0,0
	C3.9,6.3,4,6.2,4,6.2h0.4c0,0,0,0,0,0c0.1,0,0.1,0.1,0.1,0.1v2.1h1.2c0.1,0,0.1,0.1,0.1,0.1V9c0,0,0,0,0,0C5.8,9,5.8,9.1,5.7,9.1z
	 M6.9,9C6.9,9,6.9,9,6.9,9c0,0.1-0.1,0.1-0.1,0.1H6.3c0,0,0,0,0,0C6.3,9.1,6.2,9.1,6.2,9V6.3c0,0,0,0,0,0c0-0.1,0.1-0.1,0.1-0.1h0.4
	c0.1,0,0.1,0.1,0.1,0.1V9z M9.8,9c0,0.1,0,0.1-0.1,0.1c0,0,0,0,0,0H9.3c0,0-0.1,0-0.1,0L8,7.4V9c0,0.1-0.1,0.1-0.1,0.1c0,0,0,0,0,0
	H7.4C7.4,9.1,7.3,9.1,7.3,9c0,0,0,0,0,0V6.3c0-0.1,0.1-0.1,0.1-0.1c0,0,0,0,0,0h0.4c0,0,0.1,0,0.1,0.1l1.2,1.6V6.3
	c0-0.1,0-0.1,0.1-0.1c0,0,0,0,0,0h0.4c0.1,0,0.1,0,0.1,0.1c0,0,0,0,0,0V9z M12.2,6.8C12.2,6.8,12.2,6.8,12.2,6.8
	c0,0.1-0.1,0.1-0.1,0.1h-1.2v0.4h1.2c0,0,0,0,0,0c0.1,0,0.1,0.1,0.1,0.1v0.4c0,0,0,0,0,0c0,0.1-0.1,0.1-0.1,0.1h-1.2v0.4h1.2
	c0,0,0,0,0,0c0.1,0,0.1,0.1,0.1,0.1V9c0,0,0,0,0,0c0,0.1-0.1,0.1-0.1,0.1h-1.7c-0.1,0-0.1-0.1-0.1-0.1V6.3c0-0.1,0.1-0.1,0.1-0.1
	h1.7c0.1,0,0.1,0.1,0.1,0.1V6.8z"/>
</svg>
