<?xml version="1.0" encoding="utf-8"?>
<!-- Generator: Adobe Illustrator 24.0.0, SVG Export Plug-In . SVG Version: 6.00 Build 0)  -->
<svg version="1.1" id="圖層_1" xmlns="http://www.w3.org/2000/svg" xmlns:xlink="http://www.w3.org/1999/xlink" x="0px" y="0px"
	 viewBox="0 0 20 20" style="enable-background:new 0 0 20 20;" xml:space="preserve">
<style type="text/css">
	.st0{opacity:0.5;}
	.st1{opacity:0.9;fill:#FFFFFF;}
</style>
<g class="st0">
	<path d="M10,20c5.5,0,10-4.5,10-10S15.5,0,10,0S0,4.5,0,10S4.5,20,10,20z M6.2,9.3l4.1-4.1C10.5,5,10.8,4.9,11,4.9s0.5,0.1,0.7,0.3
		c0.4,0.4,0.4,1,0,1.4L8.4,10l3.4,3.4c0.4,0.4,0.4,1,0,1.4s-1,0.4-1.4,0l-4.1-4.1C6,10.5,5.9,10.3,5.9,10S6,9.5,6.2,9.3z"/>
</g>
<path class="st1" d="M6.2,9.3l4.1-4.1C10.5,5,10.8,4.9,11,4.9s0.5,0.1,0.7,0.3c0.4,0.4,0.4,1,0,1.4L8.4,10l3.4,3.4
	c0.4,0.4,0.4,1,0,1.4s-1,0.4-1.4,0l-4.1-4.1C6,10.5,5.9,10.3,5.9,10S6,9.5,6.2,9.3z"/>
</svg>
