<?xml version="1.0" encoding="utf-8"?>
<!-- Generator: Adobe Illustrator 24.0.0, SVG Export Plug-In . SVG Version: 6.00 Build 0)  -->
<svg version="1.1" id="圖層_1" xmlns="http://www.w3.org/2000/svg" xmlns:xlink="http://www.w3.org/1999/xlink" x="0px" y="0px"
	 viewBox="0 0 20 20" style="enable-background:new 0 0 20 20;" xml:space="preserve">
<style type="text/css">
	.st0{opacity:0.5;}
	.st1{opacity:0.9;fill:#FFFFFF;}
</style>
<g class="st0">
	<path d="M10,0C4.5,0,0,4.5,0,10s4.5,10,10,10s10-4.5,10-10S15.5,0,10,0z M13.8,10.7l-4.1,4.1C9.5,15,9.2,15.1,9,15.1
		S8.4,15,8.2,14.8c-0.4-0.4-0.4-1,0-1.4l3.4-3.4L8.2,6.6c-0.4-0.4-0.4-1,0-1.4c0.4-0.4,1-0.4,1.4,0l4.1,4.1C13.9,9.5,14,9.7,14,10
		S14,10.5,13.8,10.7z"/>
</g>
<path class="st1" d="M13.8,10.7l-4.1,4.1C9.5,15,9.2,15.1,9,15.1S8.4,15,8.2,14.8c-0.4-0.4-0.4-1,0-1.4l3.4-3.4L8.2,6.6
	c-0.4-0.4-0.4-1,0-1.4c0.4-0.4,1-0.4,1.4,0l4.1,4.1C13.9,9.5,14,9.7,14,10S14,10.5,13.8,10.7z"/>
</svg>
